<svg width="20" height="20" viewBox="0 0 20 20" fill="none" xmlns="http://www.w3.org/2000/svg">
<path d="M14.4806 0H5.51916C2.4759 0 0 2.47601 0 5.51928V14.4807C0 17.5241 2.4759 20 5.51916 20H14.4806C17.5241 20 20 17.524 20 14.4807V5.51928C20.0001 2.47601 17.5241 0 14.4806 0ZM18.2256 14.4807C18.2256 16.5456 16.5456 18.2255 14.4807 18.2255H5.51916C3.45435 18.2256 1.7745 16.5456 1.7745 14.4807V5.51928C1.7745 3.45447 3.45435 1.7745 5.51916 1.7745H14.4806C16.5455 1.7745 18.2255 3.45447 18.2255 5.51928L18.2256 14.4807Z" fill="#1E1E1E"/>
<path d="M10 4.84674C7.15832 4.84674 4.84651 7.15855 4.84651 10.0002C4.84651 12.8418 7.15832 15.1535 10 15.1535C12.8417 15.1535 15.1535 12.8418 15.1535 10.0002C15.1535 7.15855 12.8417 4.84674 10 4.84674ZM10 13.3789C8.1369 13.3789 6.62101 11.8632 6.62101 10.0001C6.62101 8.13689 8.13678 6.62112 10 6.62112C11.8632 6.62112 13.379 8.13689 13.379 10.0001C13.379 11.8632 11.8631 13.3789 10 13.3789ZM15.3696 3.34208C15.0277 3.34208 14.6919 3.4805 14.4504 3.72301C14.2078 3.96434 14.0683 4.30031 14.0683 4.64338C14.0683 4.98539 14.2079 5.32124 14.4504 5.56376C14.6918 5.80509 15.0277 5.94468 15.3696 5.94468C15.7127 5.94468 16.0475 5.80509 16.29 5.56376C16.5325 5.32124 16.6709 4.98527 16.6709 4.64338C16.6709 4.30031 16.5325 3.96434 16.29 3.72301C16.0487 3.4805 15.7127 3.34208 15.3696 3.34208Z" fill="#1E1E1E"/>
</svg>
