<svg width="42" height="39" viewBox="0 0 42 39" fill="none" xmlns="http://www.w3.org/2000/svg">
<path d="M21.3292 21.735C21.2974 21.5712 21.2196 21.4228 21.11 21.301L22.0094 19.9676L28.9427 27.6465L19.2249 24.0957L20.1243 22.7622C20.2784 22.8182 20.4434 22.8351 20.609 22.8029C20.8473 22.7566 21.0533 22.6206 21.191 22.4187C21.327 22.217 21.3756 21.9737 21.3292 21.735Z" fill="#111111"/>
<path d="M20.5187 22.3403C20.757 22.294 20.9126 22.0633 20.8663 21.825C20.8199 21.5868 20.5892 21.4312 20.351 21.4775C20.1127 21.5238 19.9571 21.7545 20.0034 21.9928C20.0497 22.231 20.2804 22.3866 20.5187 22.3403Z" fill="#111111"/>
<path fill-rule="evenodd" clip-rule="evenodd" d="M19.7597 22.5168C19.4867 22.2129 19.4412 21.7533 19.6793 21.4008C19.8153 21.1991 20.0227 21.0612 20.261 21.0148C20.4266 20.9827 20.5916 20.9996 20.7456 21.0555L21.6451 19.7221L11.9272 16.1709L18.86 23.8506L19.7597 22.5168ZM19.3172 22.5439C19.0838 22.1329 19.0845 21.6074 19.3673 21.1903L13.7938 17.4299L18.9606 23.0747L19.3172 22.5439Z" fill="#111111"/>
<path d="M22.0472 30.2037L21.3699 26.7192C21.9575 26.605 22.5077 26.387 23.0041 26.0801L23.448 26.2414C23.1988 26.4144 22.9368 26.5664 22.6619 26.694L22.1434 30.6986L22.1437 30.7003L19.8855 27.1602C19.454 27.1144 19.0327 27.0176 18.6265 26.8693L15.4272 29.3337L17.4839 26.2846L17.5902 26.129L17.6946 25.9722C18.5688 26.5618 19.5882 26.8503 20.6389 26.8061L20.6548 27.1821C20.4762 27.1896 20.2974 27.1891 20.1217 27.1777L22.0472 30.2037Z" fill="#111111"/>
<path d="M17.1172 25.5163L16.8613 25.7934C16.3466 25.3191 15.9376 24.7588 15.6503 24.1376L11.6435 23.6178L15.1871 21.3592C15.2088 21.1494 15.2427 20.9424 15.2889 20.7382L15.6048 21.0894C15.5487 21.4238 15.5244 21.7669 15.5378 22.113L15.1618 22.1288C15.154 21.95 15.1578 21.7709 15.1689 21.5935L12.1398 23.5213L15.6244 22.844C15.8256 23.8793 16.3418 24.803 17.1172 25.5163Z" fill="#111111"/>
<path d="M18.8229 13.6161L19.4999 17.0989C18.9122 17.2132 18.3623 17.4328 17.864 17.7384L17.4217 17.5767C17.6693 17.4041 17.9329 17.2518 18.2078 17.1242L18.7264 13.1196L20.9847 16.6599C21.4158 16.7041 21.8375 16.8025 22.2437 16.9509L25.4426 14.4848L23.1752 17.8463C22.2994 17.257 21.2816 16.9682 20.2312 17.014L20.215 16.6364C20.3936 16.6289 20.5727 16.631 20.7481 16.6407L18.8229 13.6161Z" fill="#111111"/>
<path d="M29.2245 20.2004L25.2197 19.6819C24.9321 19.059 24.523 18.4987 24.0086 18.0261L23.7527 18.3032C24.5278 19.0148 25.044 19.9385 25.2453 20.9738L28.7282 20.2968L25.7008 22.2243C25.7119 22.0469 25.716 21.8692 25.7078 21.689L25.3318 21.7048C25.3456 22.0526 25.3209 22.394 25.2652 22.7301L25.5808 23.0796C25.6272 22.8767 25.6592 22.6687 25.6829 22.4602L29.2268 20.1999L29.2245 20.2004Z" fill="#111111"/>
<path d="M18.0374 9.57523C11.2261 10.8992 6.77683 17.4953 8.10078 24.3064C9.42505 31.1192 16.0209 35.5666 22.8323 34.2426C29.6436 32.9186 34.0932 26.3242 32.7689 19.5114C31.4449 12.7003 24.8487 8.25124 18.0374 9.57523ZM30.5861 28.4173C30.4572 28.3344 30.2867 28.3676 30.2005 28.4957C30.1144 28.6239 30.1478 28.7957 30.2726 28.8842C29.4475 30.0466 28.4192 31.065 27.2255 31.8799C27.1396 31.75 26.9658 31.7131 26.8356 31.7974C26.7054 31.8817 26.6684 32.0555 26.7511 32.186C25.6275 32.8776 24.3698 33.3915 23.0127 33.6891C22.9784 33.5392 22.8334 33.4428 22.6825 33.4722C22.5316 33.5015 22.4333 33.6451 22.4576 33.797C21.0018 34.0444 19.5604 34.02 18.186 33.7598C18.217 33.6072 18.1194 33.4596 17.9681 33.4266C17.8171 33.3952 17.6689 33.4899 17.6342 33.6415C16.3112 33.3244 15.058 32.7864 13.9268 32.0615C14.0097 31.9326 13.9762 31.7605 13.8481 31.6743C13.7199 31.5882 13.5497 31.6212 13.4612 31.7461C12.2971 30.9214 11.2787 29.8931 10.4638 28.6994C10.594 28.6151 10.6306 28.4397 10.5463 28.3095C10.462 28.1793 10.2882 28.1424 10.1577 28.225C9.46606 27.1015 8.95219 25.8438 8.65627 24.4864C8.80454 24.4524 8.90122 24.3074 8.87189 24.1565C8.84255 24.0056 8.69892 23.9073 8.54871 23.933C8.29928 22.4759 8.32401 21.0363 8.58393 19.6602C8.73656 19.6913 8.88444 19.5949 8.9172 19.4423C8.94857 19.2913 8.85388 19.1431 8.70393 19.1081C9.02107 17.7851 9.55743 16.5323 10.2842 15.4021C10.4128 15.4833 10.5833 15.4502 10.6695 15.322C10.7556 15.1939 10.7226 15.0237 10.5977 14.9352C11.4228 13.7728 12.4508 12.7528 13.6445 11.9378C13.7304 12.0677 13.9042 12.1046 14.0344 12.0203C14.1646 11.936 14.2016 11.7623 14.119 11.6317C15.1674 10.9868 16.33 10.4945 17.5827 10.1903L18.3595 11.2321L18.6895 9.97551C20.0503 9.77515 21.3967 9.8149 22.684 10.0596C22.6526 10.2106 22.7503 10.3582 22.9016 10.3912C23.0529 10.4243 23.2008 10.3279 23.2358 10.178C24.5605 10.4948 25.8117 11.0314 26.9432 11.7579C26.8603 11.8868 26.8935 12.0573 27.0216 12.1435C27.1498 12.2296 27.3216 12.1962 27.4088 12.0734C28.5725 12.8965 29.5909 13.9247 30.406 15.1187C30.2761 15.2047 30.2391 15.3784 30.3234 15.5086C30.4077 15.6388 30.5818 15.6774 30.712 15.5931C31.404 16.7183 31.9175 17.9744 32.2137 19.333C32.0651 19.3654 31.9685 19.5104 31.9978 19.6613C32.0271 19.8122 32.1707 19.9105 32.3213 19.8864C32.5704 21.3419 32.546 22.7832 32.2857 24.1576C32.1331 24.1266 31.9855 24.2242 31.9525 24.3755C31.9211 24.5265 32.0161 24.6763 32.1657 24.7097C31.8493 26.0346 31.3126 27.2858 30.5861 28.4173Z" fill="#111111"/>
<path d="M19.1309 7.64463C18.9358 6.91786 18.2093 6.45615 17.4594 6.6019C16.7096 6.74766 16.209 7.44789 16.3004 8.19482C9.34834 10.2857 4.95955 17.3667 6.37376 24.6421C7.88073 32.3948 15.4153 37.4765 23.1679 35.9695C30.9206 34.4626 36.0029 26.9284 34.4959 19.1757C33.0818 11.9006 26.3599 6.97896 19.1309 7.64463ZM22.9042 34.6128C15.8998 35.9744 9.09205 31.3829 7.73051 24.3784C6.36896 17.3738 10.9611 10.5668 17.9655 9.20531C24.9699 7.84378 31.7777 12.4352 33.1392 19.4398C34.5008 26.4443 29.9087 33.2513 22.9042 34.6128Z" fill="#111111"/>
<path d="M16.4655 7.13351C16.4752 7.02093 16.5024 6.91102 16.5457 6.80871C16.2861 6.78003 16.047 6.69416 15.9549 6.48884C15.7978 6.1379 15.8326 5.69744 16.0491 5.28076C16.2768 4.84107 16.6583 4.52183 17.0441 4.44685C17.4298 4.37187 17.9032 4.52493 18.2791 4.8471C18.6359 5.15234 18.8332 5.54768 18.819 5.93191C18.8104 6.15702 18.621 6.32617 18.3911 6.4498C18.4687 6.52861 18.5359 6.62018 18.5871 6.72093C18.8895 6.54841 19.1366 6.29982 19.1503 5.9434C19.1676 5.45778 18.9289 4.96668 18.4949 4.59448C18.0434 4.2091 17.4636 4.02733 16.9808 4.12119C16.4979 4.21504 16.0285 4.60075 15.7544 5.12738C15.4914 5.63505 15.454 6.17983 15.652 6.62361C15.7973 6.94913 16.1203 7.08688 16.4655 7.13351Z" fill="#111111"/>
<path d="M3.35295 17.2685C3.77549 16.6496 4.36093 16.3416 4.93264 16.4507C5.82992 16.6218 6.34579 17.7571 6.10195 19.0355C5.91566 20.0122 5.32179 20.7959 4.61802 20.9909C4.5405 21.009 4.4611 20.9939 4.39418 20.9564C4.32725 20.919 4.27433 20.8513 4.25469 20.7817L4.18556 20.4969C4.14136 20.3404 4.2382 20.1778 4.39325 20.1415C4.70637 20.0531 5.09861 19.593 5.23644 18.8704C5.39546 18.0367 5.11694 17.3828 4.76756 17.3162C4.55316 17.2753 4.30091 17.4329 4.08491 17.7456L2.80785 19.6087C2.38531 20.2276 1.80139 20.5277 1.22967 20.4187C0.332395 20.2475 -0.183478 19.1122 0.0603644 17.8338C0.245139 16.865 0.840528 16.0734 1.54278 15.8864C1.6203 15.8682 1.70122 15.8755 1.76814 15.9129C1.83355 15.9583 1.88004 16.0165 1.90612 16.0956L1.97524 16.3803C2.01945 16.5369 1.9226 16.6995 1.76756 16.7357C1.44801 16.8147 1.0637 17.2763 0.925881 17.9989C0.766853 18.8326 1.04386 19.4944 1.39324 19.5611C1.60764 19.602 1.86141 19.4364 2.06795 19.1302L3.35295 17.2685Z" fill="#111111"/>
<path d="M4.40347 11.4001C5.07123 10.359 6.46295 10.0609 7.50399 10.7286C8.53823 11.392 8.84756 12.7813 8.1798 13.8223C7.51204 14.8634 6.12032 15.1615 5.08608 14.4981C4.04504 13.8304 3.73571 12.4411 4.40347 11.4001ZM5.14513 11.8758C4.73923 12.5086 4.92465 13.3574 5.55744 13.7633C6.18343 14.1648 7.03225 13.9794 7.43814 13.3466C7.84404 12.7138 7.65425 11.8718 7.02826 11.4703C6.39547 11.0644 5.55102 11.243 5.14513 11.8758Z" fill="#111111"/>
<path d="M8.6608 5.18637C8.7292 5.1916 8.80637 5.2319 8.85374 5.28711C8.90638 5.34847 8.92921 5.42474 8.92924 5.49927L8.90658 5.79563C8.88824 5.96048 8.75326 6.07628 8.58754 6.06933C8.45689 6.05361 8.32715 6.10101 8.22285 6.19049C8.01425 6.36945 7.98984 6.68862 8.1688 6.89722L8.31618 7.069L8.85608 6.60582C8.97878 6.50055 9.16116 6.51449 9.26643 6.6372L9.46118 6.8642C9.56645 6.98691 9.5525 7.16929 9.4298 7.27456L8.8899 7.73775L10.9532 10.1428C11.0532 10.2593 11.0445 10.4479 10.9218 10.5531L10.6948 10.7479C10.5721 10.8531 10.3844 10.8331 10.2844 10.7165L8.22116 8.31147L8.08004 8.43253C7.95734 8.5378 7.77496 8.52385 7.66969 8.40114L7.47494 8.17414C7.36967 8.05143 7.38362 7.86905 7.50632 7.76378L7.64743 7.64272L7.50006 7.47094C7.00002 6.88809 7.06715 6.01038 7.64386 5.51562C7.92609 5.2735 8.28464 5.1576 8.6608 5.18637Z" fill="#111111"/>
<path d="M14.8062 7.25031C14.9586 7.29926 15.0436 7.46465 14.9946 7.61702C14.8755 7.96901 14.6328 8.25726 14.302 8.42716C13.6261 8.77435 12.788 8.50507 12.4409 7.82916C12.4372 7.82197 11.4584 5.91648 11.4584 5.91648L11.293 6.00143C11.1492 6.0753 10.975 6.01935 10.9012 5.87554L10.7645 5.60949C10.6906 5.46568 10.7466 5.29153 10.8904 5.21766L11.0558 5.13271L10.7492 4.5359C10.6901 4.42085 10.7103 4.28325 10.8034 4.19908L11.0215 3.96895C11.0895 3.90675 11.1831 3.87681 11.27 3.88671C11.3606 3.9038 11.4444 3.96074 11.4887 4.04702L11.8396 4.73012L12.4723 4.40509C12.6161 4.33122 12.7903 4.38718 12.8642 4.53099L13.0008 4.79704C13.0747 4.94085 13.0187 5.11499 12.8749 5.18886L12.2422 5.51389L13.2209 7.41938C13.2209 7.41938 13.2209 7.41938 13.2246 7.42657C13.3502 7.67105 13.655 7.76897 13.8994 7.64339C14.0217 7.5806 14.1109 7.47117 14.1493 7.35145C14.2055 7.19537 14.3637 7.11412 14.5232 7.15938L14.8062 7.25031Z" fill="#111111"/>
<path d="M22.489 0.963725C22.6507 0.961229 22.782 1.08856 22.7845 1.25021L22.789 1.54119C22.7915 1.70284 22.6643 1.84224 22.5026 1.84474L20.781 1.87132L20.8548 6.6482C20.8571 6.80177 20.7299 6.94118 20.5683 6.94367L20.2692 6.94829C20.1076 6.95079 19.9761 6.81538 19.9738 6.66181L19.9 1.88493L18.1784 1.91151C18.0167 1.91401 17.8853 1.7786 17.8828 1.61695L17.8783 1.32597C17.8758 1.16431 18.0031 1.03299 18.1648 1.0305L22.489 0.963725Z" fill="#111111"/>
<path d="M27.8302 4.1372C27.837 4.224 27.8105 4.30888 27.7502 4.36629L27.5473 4.58241C27.447 4.68661 27.2889 4.705 27.1697 4.62548C27.0737 4.55318 26.9628 4.50163 26.847 4.4655C26.2683 4.28489 25.6603 4.57785 25.4893 5.12573L24.8295 7.24009C24.7838 7.38671 24.6116 7.47695 24.4573 7.42879L24.1795 7.3421C24.0252 7.29393 23.9426 7.12422 23.9884 6.97761L24.6482 4.86324C24.6506 4.85553 24.6506 4.85553 24.653 4.84781L25.1082 3.38936C25.1563 3.23503 25.3183 3.1501 25.4727 3.19826L25.7505 3.28495C25.8894 3.3283 25.9738 3.46473 25.956 3.60314C26.3172 3.50414 26.716 3.50157 27.1095 3.62439C27.3333 3.69422 27.5296 3.79783 27.7163 3.9323C27.7862 3.97953 27.821 4.05812 27.8302 4.1372Z" fill="#111111"/>
<path d="M33.3631 7.31549C33.4942 7.41012 33.5234 7.59069 33.4287 7.72178L31.2287 10.7696C31.1388 10.8941 30.9535 10.9298 30.8224 10.8352L30.5799 10.6602C30.4488 10.5655 30.4244 10.3784 30.5143 10.2539L30.571 10.1752C30.0992 10.1935 29.6131 10.052 29.2002 9.75396C28.1974 9.03007 27.976 7.62409 28.6952 6.62782C29.4191 5.62499 30.8233 5.39237 31.8261 6.11626C32.239 6.41433 32.5264 6.83112 32.6575 7.28472L32.7143 7.20606C32.8089 7.07498 32.9895 7.04581 33.1206 7.14043L33.3631 7.31549ZM31.3104 6.83069C30.7008 6.39068 29.8431 6.52923 29.4031 7.1388C28.9678 7.7418 29.1064 8.59952 29.7159 9.03953C30.3255 9.47954 31.1719 9.34281 31.6119 8.73325L31.6167 8.72669C32.0567 8.11713 31.9199 7.2707 31.3104 6.83069Z" fill="#111111"/>
<path d="M37.591 12.8503C37.551 12.9357 37.4729 13.0078 37.3766 13.0239L33.3892 13.8168C33.2682 13.8398 33.1492 13.7932 33.0815 13.6926L32.8648 13.3707C32.7972 13.2701 32.7988 13.1423 32.8702 13.0456L35.102 9.64374C35.1577 9.56727 35.2494 9.51531 35.3481 9.51713C35.4422 9.51223 35.5366 9.56564 35.5908 9.64611L35.7668 9.90767C35.8345 10.0083 35.8328 10.1361 35.7727 10.235L34.0932 12.778L37.0814 12.1799C37.1957 12.1615 37.3147 12.208 37.3824 12.3086L37.563 12.5769C37.6171 12.6574 37.6265 12.7582 37.591 12.8503Z" fill="#111111"/>
<path d="M37.817 19.8815C37.7777 19.891 37.7384 19.9005 37.6992 19.9101L37.6128 19.931C37.4556 19.9692 37.2994 19.874 37.2613 19.7168L36.5198 16.661C36.0002 16.9534 35.7235 17.5613 35.8702 18.1662C35.956 18.5197 36.1775 18.8153 36.482 19.0076C36.6265 19.089 36.6704 19.2696 36.5792 19.4082L36.4245 19.662C36.3907 19.7285 36.3277 19.777 36.2491 19.7961C36.1705 19.8152 36.0922 19.8009 36.0239 19.7592C35.5163 19.4499 35.155 18.9552 35.014 18.3739C34.7223 17.172 35.4679 15.9596 36.6698 15.668C37.8639 15.3782 39.0822 16.1141 39.3739 17.316C39.6369 18.4001 39.0296 19.4625 37.9232 19.8391C37.8937 19.8545 37.8701 19.8603 37.8387 19.8679C37.8308 19.8698 37.823 19.8717 37.817 19.8815ZM38.5176 17.5238C38.3842 16.9739 37.9203 16.5707 37.3856 16.4925L37.9594 18.857C38.43 18.5682 38.6491 18.0658 38.5176 17.5238Z" fill="#111111"/>
<path d="M41.4244 22.5084C41.42 22.67 41.287 22.8039 41.1254 22.7995L35.7598 22.6545C35.6063 22.6503 35.4726 22.5093 35.477 22.3476L35.4849 22.0567C35.4892 21.8951 35.6301 21.7695 35.7836 21.7737L41.1492 21.9187C41.3108 21.9231 41.4366 22.0558 41.4323 22.2175L41.4244 22.5084Z" fill="#111111"/>
</svg>
