<svg width="21" height="21" viewBox="0 0 21 21" fill="none" xmlns="http://www.w3.org/2000/svg">
<path fill-rule="evenodd" clip-rule="evenodd" d="M13.5297 14.9439C13.1731 14.5874 12.6102 14.5583 12.1805 14.8221C10.964 15.5692 9.53234 16 8 16C3.58167 16 0 12.4183 0 8C0 3.58172 3.58167 0 8 0C12.4183 0 16 3.58172 16 8C16 9.5323 15.5692 10.964 14.8221 12.1805C14.5582 12.6102 14.5873 13.1732 14.9439 13.5297L19.7175 18.3033C20.108 18.6938 20.108 19.327 19.7175 19.7175C19.327 20.108 18.6938 20.108 18.3033 19.7175L13.5297 14.9439ZM14 8C14 11.3137 11.3137 14 8 14C4.68628 14 2 11.3137 2 8C2 4.68629 4.68628 2 8 2C11.3137 2 14 4.68629 14 8Z" fill="#1E1E1E"/>
</svg>
